HIERARCHY
ROOT hip
{
	OFFSET 0.000000 0.000000 0.000000
	CHANNELS 6 Xposition Yposition Zposition Xrotation Zrotation Yrotation 
	JOINT abdomen
	{
		OFFSET 0.000000 3.422050 0.000000
		CHANNELS 3 Xrotation Zrotation Yrotation 
		JOINT chest
		{
			OFFSET 0.000000 8.486693 -0.684411
			CHANNELS 3 Xrotation Zrotation Yrotation 
			JOINT neck
			{
				OFFSET 0.000000 10.266162 -0.273764
				CHANNELS 3 Xrotation Zrotation Yrotation 
				JOINT head
				{
					OFFSET 0.000000 3.148285 0.000000
					CHANNELS 3 Xrotation Zrotation Yrotation 
					End Site
					{
						OFFSET 0.000000 3.148289 0.000000
					}
				}
			}
			JOINT lCollar
			{
				OFFSET 3.422053 6.707223 -0.821293
				CHANNELS 3 Yrotation Zrotation Xrotation 
				JOINT lShldr
				{
					OFFSET 3.285171 0.000000 0.000000
					CHANNELS 3 Zrotation Yrotation Xrotation 
					JOINT lForeArm
					{
						OFFSET 10.129278 0.000000 0.000000
						CHANNELS 3 Yrotation Zrotation Xrotation 
						JOINT lHand
						{
							OFFSET 8.486692 0.000000 0.000000
							CHANNELS 3 Zrotation Yrotation Xrotation 
							End Site
							{
								OFFSET 4.106464 0.000000 0.000000
							}
						}
					}
				}
			}
			JOINT rCollar
			{
				OFFSET -3.558935 6.707223 -0.821293
				CHANNELS 3 Yrotation Zrotation Xrotation 
				JOINT rShldr
				{
					OFFSET -3.148289 0.000000 0.000000
					CHANNELS 3 Zrotation Yrotation Xrotation 
					JOINT rForeArm
					{
						OFFSET -10.266159 0.000000 0.000000
						CHANNELS 3 Yrotation Zrotation Xrotation 
						JOINT rHand
						{
							OFFSET -8.349810 0.000000 0.000000
							CHANNELS 3 Zrotation Yrotation Xrotation 
							End Site
							{
								OFFSET -4.106464 0.000000 0.000000
							}
						}
					}
				}
			}
		}
	}
	JOINT lThigh
	{
		OFFSET 5.338403 -1.642589 1.368821
		CHANNELS 3 Xrotation Zrotation Yrotation 
		JOINT lShin
		{
			OFFSET -2.053232 -20.121670 0.000000
			CHANNELS 3 Xrotation Zrotation Yrotation 
			JOINT lFoot
			{
				OFFSET 0.000000 -19.300380 -1.231939
				CHANNELS 3 Xrotation Yrotation Zrotation 
				End Site
				{
					OFFSET 0.000000 -2.463878 4.653993
				}
			}
		}
	}
	JOINT rThigh
	{
		OFFSET -5.338403 -1.642589 1.368821
		CHANNELS 3 Xrotation Zrotation Yrotation 
		JOINT rShin
		{
			OFFSET 2.053232 -20.121670 0.000000
			CHANNELS 3 Xrotation Zrotation Yrotation 
			JOINT rFoot
			{
				OFFSET 0.000000 -19.300380 -1.231939
				CHANNELS 3 Xrotation Yrotation Zrotation 
				End Site
				{
					OFFSET 0.000000 -2.463878 4.653993
				}
			}
		}
	}
}
MOTION
Frames: 19
Frame Time: 0.033264
0.429528 26.686531 8.863586 23.023539 0.000000 0.000000 11.522491 0.310654 -0.421917 0.411527 1.540392 -1.875930 2.204937 0.000000 0.000000 -0.885736 0.000000 0.000000 -4.792975 -24.250183 28.109835 -32.566410 -31.567085 -65.909027 -90.947060 -75.000534 -92.695343 7.010451 -40.317287 134.237335 5.050478 23.315979 26.070686 32.408226 31.522409 -66.044121 89.392395 74.885376 -91.193909 -6.040914 34.159954 136.222443 -102.355370 25.280285 -7.159226 100.650047 2.598213 -0.135381 -12.827362 6.386580 -0.202565 -102.622528 -26.361483 8.771091 99.689949 -2.633412 0.206191 -11.164297 -5.334363 1.767983 
0.429528 26.686531 8.782035 23.549957 0.000000 0.000000 11.322339 0.310655 -0.421944 -0.039428 1.540419 -1.875884 1.491514 0.000000 0.000000 -1.774395 0.000000 0.000000 -4.792975 -24.250183 28.109835 -32.566410 -31.567085 -65.909027 -91.666840 -75.013107 -93.389008 7.278054 -40.285465 134.139221 5.050478 23.315979 26.070686 32.408226 31.522409 -66.044121 90.090233 74.902412 -91.866241 -6.297860 34.127579 136.135040 -103.020012 24.866020 -7.410649 100.650047 2.598213 -0.135381 -12.500321 6.762298 -0.394750 -103.273033 -25.945330 9.025987 99.689949 -2.633412 0.206191 -10.840340 -5.706485 1.970816 
0.429528 26.686531 8.700483 24.076328 0.000000 0.000000 11.122185 0.310656 -0.421971 -0.490354 1.540447 -1.875839 0.777591 0.000000 0.000000 -2.664021 0.000000 0.000000 -4.792975 -24.250183 28.109835 -32.566410 -31.567085 -65.909027 -92.387787 -75.023460 -94.083839 7.545454 -40.253315 134.041397 5.050478 23.315979 26.070686 32.408226 31.522409 -66.044121 90.789474 74.917305 -92.539978 -6.554646 34.094875 136.047836 -103.680328 24.449221 -7.655902 100.650047 2.598213 -0.135381 -12.171774 7.136884 -0.589230 -103.919090 -25.526686 9.274695 99.689949 -2.633412 0.206191 -10.514869 -6.077425 2.175881 
0.429528 26.686531 8.618932 24.602627 0.000000 0.000000 10.922038 0.310658 -0.421998 -0.941239 1.540476 -1.875794 0.063225 0.000000 0.000000 -3.554508 0.000000 0.000000 -4.792975 -24.250183 28.109835 -32.566410 -31.567085 -65.909027 -93.109505 -75.031532 -94.779442 7.812649 -40.220810 133.943802 5.050478 23.315979 26.070686 32.408226 31.522409 -66.044121 91.489883 74.929985 -93.214897 -6.811262 34.061840 135.960831 -104.336342 24.029982 -7.895013 100.650047 2.598213 -0.135381 -11.841712 7.510311 -0.786013 -104.560768 -25.105648 9.517262 99.689949 -2.633412 0.206191 -10.187880 -6.447156 2.383183 
0.429528 26.686531 8.537380 25.128841 0.000000 0.000000 10.721894 0.310659 -0.422026 -1.392067 1.540504 -1.875749 -0.651532 0.000000 0.000000 -4.445753 0.000000 0.000000 -4.792975 -24.250183 28.109837 -32.566410 -31.567085 -65.909027 -93.831924 -75.037384 -95.475761 8.079635 -40.187946 133.846436 5.050478 23.315979 26.070686 32.408226 31.522409 -66.044121 92.191437 74.940567 -93.890945 -7.067713 34.028500 135.874069 -104.988121 23.608433 -8.128026 100.650047 2.598213 -0.135381 -11.510122 7.882541 -0.985103 -105.198082 -24.682323 9.753720 99.689949 -2.633412 0.206191 -9.859348 -6.815636 2.592726 
0.429528 26.686531 8.455828 25.654947 0.000000 0.000000 10.521760 0.310660 -0.422053 -1.842825 1.540532 -1.875704 -1.366624 0.000000 0.000000 -5.337648 0.000000 0.000000 -4.792975 -24.250183 28.109835 -32.566410 -31.567085 -65.909027 -94.554733 -75.040909 -96.172462 8.346410 -40.154762 133.749344 5.050478 23.315979 26.070686 32.408226 31.522409 -66.044121 92.893852 74.949028 -94.567863 -7.323989 33.994823 135.787491 -105.635689 23.184660 -8.354969 100.650047 2.598213 -0.135381 -11.176991 8.253545 -1.186509 -105.831078 -24.256807 9.984113 99.689949 -2.633412 0.206191 -9.529274 -7.182839 2.804517 
0.429528 26.686531 8.374276 26.180927 0.000000 0.000000 10.321626 0.310661 -0.422080 -2.293501 1.540561 -1.875660 -2.081993 0.000000 0.000000 -6.230082 0.000000 0.000000 -4.792975 -24.250183 28.109837 -32.566410 -31.567085 -65.909027 -95.277718 -75.042175 -96.869339 8.612965 -40.121208 133.652481 5.050478 23.315979 26.070686 32.408226 31.522409 -66.044121 93.596832 74.955284 -95.245346 -7.580094 33.960842 135.701157 -106.279091 22.758774 -8.575890 100.650047 2.598213 -0.135381 -10.842306 8.623289 -1.390236 -106.459801 -23.829220 10.208485 99.689949 -2.633412 0.206191 -9.197640 -7.548732 3.018561 
0.429528 26.686531 8.292725 26.706738 0.000000 0.000000 10.121508 0.310662 -0.422107 -2.744078 1.540591 -1.875615 -2.797587 0.000000 0.000000 -7.122950 0.000000 0.000000 -4.792976 -24.250183 28.109833 -32.566410 -31.567085 -65.909027 -96.000740 -75.041206 -97.566254 8.879297 -40.087322 133.555908 5.050478 23.315979 26.070686 32.408226 31.522409 -66.044121 94.300362 74.959442 -95.923386 -7.836020 33.926533 135.615051 -106.918350 22.330885 -8.790820 100.650047 2.598213 -0.135381 -10.506058 8.991740 -1.596289 -107.084312 -23.399645 10.426884 99.689949 -2.633412 0.206191 -8.864442 -7.913284 3.234861 
0.429528 26.686531 8.211173 27.232378 0.000000 0.000000 9.921395 0.310663 -0.422134 -3.194545 1.540620 -1.875572 -3.513350 0.000000 0.000000 -8.016147 0.000000 0.000000 -4.792975 -24.250183 28.109835 -32.566410 -31.567085 -65.909027 -96.723511 -75.037926 -98.262924 9.145410 -40.053101 133.459595 5.050478 23.315979 26.070686 32.408226 31.522409 -66.044121 95.003990 74.961311 -96.601524 -8.091762 33.891914 135.529160 -107.553528 21.901094 -8.999807 100.650047 2.598213 -0.135381 -10.168228 9.358867 -1.804675 -107.704643 -22.968191 10.639349 99.689949 -2.633412 0.206191 -8.529661 -8.276456 3.453422 
0.429528 26.686531 8.129622 27.757811 0.000000 0.000000 9.721294 0.310664 -0.422161 -3.644885 1.540651 -1.875528 -4.229220 0.000000 0.000000 -8.909555 0.000000 0.000000 -4.792975 -24.250183 28.109837 -32.566410 -31.567085 -65.909027 -97.445824 -75.032394 -98.959122 9.411296 -40.018543 133.363541 5.050478 23.315979 26.070686 32.408226 31.522409 -66.044121 95.707748 74.961105 -97.279793 -8.347321 33.856976 135.443497 -108.184662 21.469503 -9.202890 100.650047 2.598213 -0.135381 -9.828814 9.724637 -2.015400 -108.320839 -22.534967 10.845932 99.689949 -2.633412 0.206191 -8.193295 -8.638222 3.674250 
0.429528 26.686531 8.048070 28.283033 0.000000 0.000000 9.521209 0.310664 -0.422188 -4.095085 1.540681 -1.875484 -4.945149 0.000000 0.000000 -9.803076 0.000000 0.000000 -4.792975 -24.250183 28.109835 -32.566410 -31.567085 -65.909027 -98.167458 -75.024605 -99.654655 9.676949 -39.983643 133.267746 5.050478 23.315979 26.070686 32.408226 31.522409 -66.044121 96.411362 74.958755 -97.957909 -8.602692 33.821728 135.358063 -108.811790 21.036221 -9.400117 100.650047 2.598213 -0.135381 -9.487791 10.089013 -2.228468 -108.932953 -22.100065 11.046675 99.689949 -2.633412 0.206191 -7.855330 -8.998547 3.897346 
0.429528 26.686531 7.966518 28.808010 0.000000 0.000000 9.321131 0.310665 -0.422215 -4.545135 1.540712 -1.875442 -5.661077 0.000000 0.000000 -10.696597 0.000000 0.000000 -4.792975 -24.250183 28.109837 -32.566410 -31.567085 -65.909027 -98.888283 -75.014572 -100.349380 9.942368 -39.948391 133.172211 5.050478 23.315979 26.070686 32.408226 31.522409 -66.044121 97.114632 74.954239 -98.635689 -8.857870 33.786152 135.272858 -109.434959 20.601343 -9.591526 100.650047 2.598213 -0.135381 -9.145161 10.451971 -2.443884 -109.541039 -21.663582 11.241632 99.689949 -2.633412 0.206191 -7.515755 -9.357399 4.122717 
0.429528 26.686531 7.884966 29.332716 0.000000 0.000000 9.121072 0.310665 -0.422243 -4.995017 1.540743 -1.875399 -6.376952 0.000000 0.000000 -11.590010 0.000000 0.000000 -4.792976 -24.250183 28.109833 -32.566410 -31.567085 -65.909027 -99.607910 -75.002228 -101.042900 10.207552 -39.912830 133.076965 5.050478 23.315979 26.070686 32.408226 31.522409 -66.044121 97.817329 74.947540 -99.312904 -9.112864 33.750294 135.187912 -110.054230 20.164982 -9.777169 100.650047 2.598213 -0.135381 -8.800903 10.813469 -2.661654 -110.145142 -21.225620 11.430849 99.689949 -2.633412 0.206191 -7.174566 -9.714745 4.350364 
0.429528 26.686531 7.803414 29.857145 0.000000 0.000000 8.921028 0.310666 -0.422270 -5.444718 1.540774 -1.875356 -7.092711 0.000000 0.000000 -12.483203 0.000000 0.000000 -4.792975 -24.250183 28.109835 -32.566410 -31.567085 -65.909027 -100.326302 -74.987701 -101.735199 10.472490 -39.876915 132.981995 5.050478 23.315979 26.070686 32.408226 31.522409 -66.044121 98.519302 74.938713 -99.989388 -9.367652 33.714096 135.103180 -110.669624 19.727228 -9.957090 100.650047 2.598213 -0.135381 -8.455015 11.173483 -2.881783 -110.745308 -20.786278 11.614376 99.689949 -2.633412 0.206191 -6.831749 -10.070555 4.580293 
0.429528 26.686531 7.721863 30.381256 0.000000 0.000000 8.721001 0.310666 -0.422297 -5.894223 1.540806 -1.875314 -7.808303 0.000000 0.000000 -13.376072 0.000000 0.000000 -4.792976 -24.250183 28.109833 -32.566410 -31.567085 -65.909027 -101.043121 -74.970856 -102.425911 10.737188 -39.840675 132.887283 5.050478 23.315979 26.070686 32.408226 31.522409 -66.044121 99.220238 74.927650 -100.664841 -9.622245 33.677605 135.018692 -111.281204 19.288183 -10.131340 100.650047 2.598213 -0.135381 -8.107481 11.531975 -3.104275 -111.341599 -20.345650 11.792267 99.689949 -2.633412 0.206191 -6.487301 -10.424794 4.812503 
0.429528 26.686531 7.640311 30.905039 0.000000 0.000000 8.520990 0.310666 -0.422324 -6.343520 1.540838 -1.875271 -8.523675 0.000000 0.000000 -14.268506 0.000000 0.000000 -4.792975 -24.250183 28.109835 -32.566410 -31.567085 -65.909027 -101.758308 -74.951843 -103.115005 11.001634 -39.804096 132.792862 5.050478 23.315979 26.070686 32.408226 31.522409 -66.044121 99.920067 74.914520 -101.339180 -9.876637 33.640800 134.934433 -111.889015 18.847956 -10.299962 100.650047 2.598213 -0.135381 -7.758292 11.888912 -3.329134 -111.934067 -19.903835 11.964572 99.689949 -2.633412 0.206191 -6.141211 -10.777432 5.047001 
0.429528 26.686531 7.558760 31.428467 0.000000 0.000000 8.321000 0.310666 -0.422351 -6.792598 1.540870 -1.875229 -9.238764 0.000000 0.000000 -15.160400 0.000000 0.000000 -4.792975 -24.250183 28.109837 -32.566410 -31.567085 -65.909027 -102.471527 -74.930603 -103.802124 11.265832 -39.767189 132.698700 5.050478 23.315979 26.070686 32.408226 31.522409 -66.044121 100.618622 74.899292 -102.012253 -10.130821 33.603691 134.850433 -112.493111 18.406631 -10.463011 100.650047 2.598213 -0.135381 -7.407438 12.244267 -3.556363 -112.522743 -19.460928 12.131343 99.689949 -2.633412 0.206191 -5.793468 -11.128438 5.283787 
0.429528 26.686531 7.477208 31.951530 0.000000 0.000000 8.121033 0.310666 -0.422378 -7.241438 1.540903 -1.875188 -9.953521 0.000000 0.000000 -16.051645 0.000000 0.000000 -4.792975 -24.250183 28.109835 -32.566410 -31.567085 -65.909027 -103.182602 -74.907150 -104.487099 11.529776 -39.729969 132.604874 5.050478 23.315979 26.070686 32.408226 31.522409 -66.044121 101.315552 74.881851 -102.683693 -10.384798 33.566280 134.766663 -113.093544 17.964315 -10.620537 100.650047 2.598213 -0.135381 -7.054914 12.598007 -3.785968 -113.107712 -19.017021 12.292632 99.689949 -2.633412 0.206191 -5.444071 -11.477777 5.522863 
0.429528 26.686531 7.395656 32.474194 0.000000 0.000000 7.921086 0.310666 -0.422405 -7.690030 1.540936 -1.875146 -10.667892 0.000000 0.000000 -16.942133 0.000000 0.000000 -4.792975 -24.250183 28.109835 -32.566410 -31.567085 -65.909027 -103.891388 -74.881485 -105.169792 11.793464 -39.692406 132.511307 5.050478 23.315979 26.070686 32.408226 31.522409 -66.044121 102.010872 74.862358 -103.353539 -10.638565 33.528561 134.683182 -113.690338 17.521101 -10.772585 100.650047 2.598213 -0.135381 -6.700702 12.950092 -4.017949 -113.688995 -18.572203 12.448492 99.689949 -2.633412 0.206191 -5.093009 -11.825420 5.764234 
